<?xml version="1.0" standalone="no"?>
<!DOCTYPE svg PUBLIC "-//W3C//DTD SVG 20010904//EN"
 "http://www.w3.org/TR/2001/REC-SVG-20010904/DTD/svg10.dtd">
<svg version="1.0" xmlns="http://www.w3.org/2000/svg"
 width="360.000000pt" height="360.000000pt" viewBox="0 0 360.000000 360.000000"
 preserveAspectRatio="xMidYMid meet">

<g transform="translate(0.000000,360.000000) scale(0.100000,-0.100000)"
fill="#000000" stroke="none">
<path d="M1635 3406 c-410 -41 -730 -147 -965 -320 -209 -153 -344 -370 -380
-613 -20 -128 -51 -273 -80 -368 -100 -328 -110 -743 -24 -1045 61 -214 213
-425 393 -544 189 -126 581 -261 889 -306 274 -40 486 -35 738 15 159 32 269
71 439 155 159 79 281 163 408 281 98 91 135 142 217 309 136 273 189 480 197
762 8 276 -28 452 -141 683 -187 382 -551 730 -926 885 -237 98 -490 133 -765
106z m429 -142 c386 -74 724 -300 1001 -668 118 -158 197 -326 246 -520 26
-103 37 -376 20 -498 -29 -203 -111 -442 -218 -632 -67 -118 -96 -152 -217
-250 -391 -317 -854 -436 -1396 -360 -271 38 -625 154 -813 265 -200 119 -349
339 -401 591 -51 247 -35 594 40 843 35 117 71 276 88 392 71 475 497 773
1213 848 155 16 316 12 437 -11z"/>
<path d="M1638 3124 c-609 -60 -1002 -310 -1067 -679 -37 -212 -56 -297 -85
-403 -59 -207 -71 -294 -71 -522 0 -133 5 -226 13 -265 48 -219 141 -382 275
-482 75 -56 245 -138 387 -188 613 -213 1197 -153 1635 169 171 126 219 182
305 355 236 476 221 945 -43 1336 -265 394 -642 639 -1052 685 -108 12 -121
12 -297 -6z m682 -404 c11 -11 20 -25 20 -31 0 -6 -20 -45 -45 -86 -25 -40
-45 -78 -45 -82 0 -5 43 -37 95 -70 74 -48 95 -67 95 -85 0 -63 -55 -60 -160
9 -46 30 -84 54 -85 52 -1 -1 -19 -42 -40 -92 -45 -107 -51 -115 -80 -115 -58
0 -57 52 3 189 l40 89 -74 67 c-41 36 -77 77 -80 91 -7 27 18 64 44 64 8 0 46
-29 84 -65 38 -36 73 -63 78 -60 5 3 23 30 40 60 51 90 73 102 110 65z m-1056
-136 c9 -8 16 -22 16 -29 0 -8 -34 -55 -75 -104 -41 -50 -75 -94 -75 -99 0 -4
21 -28 46 -52 105 -103 125 -149 71 -169 -30 -12 -45 -2 -118 74 -72 75 -67
76 -119 -26 -16 -31 -37 -59 -46 -63 -24 -9 -64 20 -64 47 0 19 41 104 80 163
12 19 10 25 -12 55 -35 46 -68 114 -68 138 0 25 35 50 61 44 11 -3 31 -26 44
-52 48 -94 43 -94 124 3 75 90 102 104 135 70z m1581 -510 c89 -30 135 -59
135 -84 0 -4 -9 -18 -19 -31 l-19 -24 -50 18 c-27 9 -52 17 -55 17 -2 0 -8
-33 -11 -72 -10 -99 -41 -239 -76 -344 -29 -84 -30 -104 -8 -104 21 0 114 -53
147 -83 49 -46 81 -120 81 -188 0 -79 -26 -157 -65 -196 -63 -63 -149 -39
-285 81 -69 61 -100 78 -100 58 0 -20 -152 -170 -197 -194 -40 -22 -68 -28
-144 -33 -82 -6 -105 -12 -179 -47 -98 -47 -190 -59 -305 -39 -151 27 -216 65
-370 220 -124 126 -138 133 -292 156 -193 27 -254 83 -328 295 -20 58 -40 109
-44 113 -5 5 -31 -5 -58 -22 -28 -17 -55 -31 -61 -31 -19 0 -42 31 -42 55 0
42 138 121 259 148 70 16 89 12 97 -20 10 -37 -6 -56 -55 -68 -23 -6 -42 -15
-42 -20 1 -29 76 -226 99 -260 39 -57 78 -75 210 -96 64 -11 135 -27 157 -36
24 -10 91 -67 170 -144 72 -69 148 -136 171 -147 63 -32 155 -52 237 -52 67 0
84 4 159 40 72 35 96 41 184 48 120 10 144 22 235 119 120 129 227 322 288
518 35 116 61 254 61 331 l0 53 -40 11 c-48 13 -63 49 -34 81 23 25 47 21 189
-27z"/>
<path d="M2666 1353 c-4 -11 0 -20 11 -26 10 -5 44 -36 76 -68 57 -59 70 -92
45 -117 -26 -26 -57 -12 -118 50 -56 58 -61 61 -77 45 -9 -9 -15 -18 -12 -20
2 -1 33 -28 69 -58 85 -73 138 -109 162 -109 45 0 65 146 29 206 -25 41 -76
80 -130 99 -53 18 -48 18 -55 -2z"/>
</g>
</svg>
